<mxfile host="app.diagrams.net" modified="2021-05-21T10:44:10.959Z" agent="5.0 (Windows NT 10.0; Win64; x64) AppleWebKit/537.36 (KHTML, like Gecko) Chrome/90.0.4430.212 Safari/537.36" etag="1VPvxZTqyjrd-AYWFTDa" version="14.7.0" type="github">
  <diagram id="2CkKgD96dK8oH8P0eEy-" name="Page-1">
    <mxGraphModel dx="1043" dy="625" grid="1" gridSize="10" guides="1" tooltips="1" connect="1" arrows="1" fold="1" page="1" pageScale="1" pageWidth="850" pageHeight="1100" math="0" shadow="0">
      <root>
        <mxCell id="0" />
        <mxCell id="1" parent="0" />
        <mxCell id="2jRVX2MjRYlF54W2R_-H-4" style="edgeStyle=orthogonalEdgeStyle;rounded=0;orthogonalLoop=1;jettySize=auto;html=1;entryX=0.5;entryY=0;entryDx=0;entryDy=0;" edge="1" parent="1" source="2jRVX2MjRYlF54W2R_-H-2">
          <mxGeometry relative="1" as="geometry">
            <mxPoint x="415" y="370" as="targetPoint" />
          </mxGeometry>
        </mxCell>
        <mxCell id="2jRVX2MjRYlF54W2R_-H-2" value="&lt;font style=&quot;font-size: 20px&quot;&gt;Start&lt;/font&gt;" style="ellipse;whiteSpace=wrap;html=1;" vertex="1" parent="1">
          <mxGeometry x="350" y="230" width="130" height="90" as="geometry" />
        </mxCell>
        <mxCell id="2jRVX2MjRYlF54W2R_-H-12" style="edgeStyle=orthogonalEdgeStyle;rounded=0;orthogonalLoop=1;jettySize=auto;html=1;" edge="1" parent="1" source="2jRVX2MjRYlF54W2R_-H-9">
          <mxGeometry relative="1" as="geometry">
            <mxPoint x="630" y="630" as="targetPoint" />
          </mxGeometry>
        </mxCell>
        <mxCell id="2jRVX2MjRYlF54W2R_-H-13" style="edgeStyle=orthogonalEdgeStyle;rounded=0;orthogonalLoop=1;jettySize=auto;html=1;" edge="1" parent="1" source="2jRVX2MjRYlF54W2R_-H-9">
          <mxGeometry relative="1" as="geometry">
            <mxPoint x="220" y="630" as="targetPoint" />
          </mxGeometry>
        </mxCell>
        <mxCell id="2jRVX2MjRYlF54W2R_-H-9" value="a&amp;gt;=b" style="rhombus;whiteSpace=wrap;html=1;" vertex="1" parent="1">
          <mxGeometry x="352.5" y="505" width="125" height="90" as="geometry" />
        </mxCell>
        <mxCell id="2jRVX2MjRYlF54W2R_-H-11" style="edgeStyle=orthogonalEdgeStyle;rounded=0;orthogonalLoop=1;jettySize=auto;html=1;entryX=0.5;entryY=0;entryDx=0;entryDy=0;" edge="1" parent="1" source="2jRVX2MjRYlF54W2R_-H-10" target="2jRVX2MjRYlF54W2R_-H-9">
          <mxGeometry relative="1" as="geometry" />
        </mxCell>
        <mxCell id="2jRVX2MjRYlF54W2R_-H-10" value="a,b,c" style="shape=parallelogram;perimeter=parallelogramPerimeter;whiteSpace=wrap;html=1;fixedSize=1;" vertex="1" parent="1">
          <mxGeometry x="355" y="380" width="120" height="50" as="geometry" />
        </mxCell>
        <mxCell id="2jRVX2MjRYlF54W2R_-H-14" value="&lt;font style=&quot;font-size: 20px&quot;&gt;F&lt;/font&gt;" style="text;html=1;strokeColor=none;fillColor=none;align=center;verticalAlign=middle;whiteSpace=wrap;rounded=0;" vertex="1" parent="1">
          <mxGeometry x="260" y="490" width="40" height="90" as="geometry" />
        </mxCell>
        <mxCell id="2jRVX2MjRYlF54W2R_-H-15" value="&lt;font style=&quot;font-size: 20px&quot;&gt;T&lt;/font&gt;" style="text;html=1;strokeColor=none;fillColor=none;align=center;verticalAlign=middle;whiteSpace=wrap;rounded=0;" vertex="1" parent="1">
          <mxGeometry x="530" y="520" width="40" height="40" as="geometry" />
        </mxCell>
        <mxCell id="2jRVX2MjRYlF54W2R_-H-20" style="edgeStyle=orthogonalEdgeStyle;rounded=0;orthogonalLoop=1;jettySize=auto;html=1;entryX=0.5;entryY=0;entryDx=0;entryDy=0;" edge="1" parent="1" source="2jRVX2MjRYlF54W2R_-H-18" target="2jRVX2MjRYlF54W2R_-H-21">
          <mxGeometry relative="1" as="geometry">
            <mxPoint x="80" y="830" as="targetPoint" />
          </mxGeometry>
        </mxCell>
        <mxCell id="2jRVX2MjRYlF54W2R_-H-22" style="edgeStyle=orthogonalEdgeStyle;rounded=0;orthogonalLoop=1;jettySize=auto;html=1;" edge="1" parent="1" source="2jRVX2MjRYlF54W2R_-H-18">
          <mxGeometry relative="1" as="geometry">
            <mxPoint x="360" y="840" as="targetPoint" />
          </mxGeometry>
        </mxCell>
        <mxCell id="2jRVX2MjRYlF54W2R_-H-18" value="b&amp;gt;=c" style="rhombus;whiteSpace=wrap;html=1;" vertex="1" parent="1">
          <mxGeometry x="160" y="630" width="125" height="90" as="geometry" />
        </mxCell>
        <mxCell id="2jRVX2MjRYlF54W2R_-H-23" style="edgeStyle=orthogonalEdgeStyle;rounded=0;orthogonalLoop=1;jettySize=auto;html=1;" edge="1" parent="1" source="2jRVX2MjRYlF54W2R_-H-19">
          <mxGeometry relative="1" as="geometry">
            <mxPoint x="500" y="840" as="targetPoint" />
          </mxGeometry>
        </mxCell>
        <mxCell id="2jRVX2MjRYlF54W2R_-H-24" style="edgeStyle=orthogonalEdgeStyle;rounded=0;orthogonalLoop=1;jettySize=auto;html=1;" edge="1" parent="1" source="2jRVX2MjRYlF54W2R_-H-19">
          <mxGeometry relative="1" as="geometry">
            <mxPoint x="770" y="840" as="targetPoint" />
          </mxGeometry>
        </mxCell>
        <mxCell id="2jRVX2MjRYlF54W2R_-H-19" value="a&amp;gt;=c" style="rhombus;whiteSpace=wrap;html=1;" vertex="1" parent="1">
          <mxGeometry x="570" y="630" width="125" height="90" as="geometry" />
        </mxCell>
        <mxCell id="2jRVX2MjRYlF54W2R_-H-37" style="edgeStyle=orthogonalEdgeStyle;rounded=0;orthogonalLoop=1;jettySize=auto;html=1;" edge="1" parent="1" source="2jRVX2MjRYlF54W2R_-H-21">
          <mxGeometry relative="1" as="geometry">
            <mxPoint x="360" y="1040" as="targetPoint" />
            <Array as="points">
              <mxPoint x="80" y="1040" />
            </Array>
          </mxGeometry>
        </mxCell>
        <mxCell id="2jRVX2MjRYlF54W2R_-H-21" value="b &quot;is the largest number&quot;" style="rounded=0;whiteSpace=wrap;html=1;" vertex="1" parent="1">
          <mxGeometry x="20" y="840" width="120" height="60" as="geometry" />
        </mxCell>
        <mxCell id="2jRVX2MjRYlF54W2R_-H-39" style="edgeStyle=orthogonalEdgeStyle;rounded=0;orthogonalLoop=1;jettySize=auto;html=1;" edge="1" parent="1" source="2jRVX2MjRYlF54W2R_-H-25" target="2jRVX2MjRYlF54W2R_-H-35">
          <mxGeometry relative="1" as="geometry" />
        </mxCell>
        <mxCell id="2jRVX2MjRYlF54W2R_-H-25" value="c &quot;s the largest number&quot;" style="rounded=0;whiteSpace=wrap;html=1;" vertex="1" parent="1">
          <mxGeometry x="300" y="840" width="120" height="60" as="geometry" />
        </mxCell>
        <mxCell id="2jRVX2MjRYlF54W2R_-H-40" style="edgeStyle=orthogonalEdgeStyle;rounded=0;orthogonalLoop=1;jettySize=auto;html=1;entryX=0.5;entryY=0;entryDx=0;entryDy=0;" edge="1" parent="1" source="2jRVX2MjRYlF54W2R_-H-26" target="2jRVX2MjRYlF54W2R_-H-35">
          <mxGeometry relative="1" as="geometry" />
        </mxCell>
        <mxCell id="2jRVX2MjRYlF54W2R_-H-26" value="a &quot;is the largest number&quot;" style="rounded=0;whiteSpace=wrap;html=1;" vertex="1" parent="1">
          <mxGeometry x="440" y="840" width="120" height="60" as="geometry" />
        </mxCell>
        <mxCell id="2jRVX2MjRYlF54W2R_-H-41" style="edgeStyle=orthogonalEdgeStyle;rounded=0;orthogonalLoop=1;jettySize=auto;html=1;" edge="1" parent="1" source="2jRVX2MjRYlF54W2R_-H-28">
          <mxGeometry relative="1" as="geometry">
            <mxPoint x="490" y="1040" as="targetPoint" />
            <Array as="points">
              <mxPoint x="770" y="1040" />
            </Array>
          </mxGeometry>
        </mxCell>
        <mxCell id="2jRVX2MjRYlF54W2R_-H-28" value="c &quot;is the largest number&quot;" style="rounded=0;whiteSpace=wrap;html=1;" vertex="1" parent="1">
          <mxGeometry x="710" y="840" width="120" height="60" as="geometry" />
        </mxCell>
        <mxCell id="2jRVX2MjRYlF54W2R_-H-29" value="&lt;span style=&quot;font-size: 22px&quot;&gt;T&lt;/span&gt;" style="text;html=1;strokeColor=none;fillColor=none;align=center;verticalAlign=middle;whiteSpace=wrap;rounded=0;" vertex="1" parent="1">
          <mxGeometry x="100" y="650" width="40" height="20" as="geometry" />
        </mxCell>
        <mxCell id="2jRVX2MjRYlF54W2R_-H-32" value="&lt;font style=&quot;font-size: 20px&quot;&gt;F&lt;/font&gt;" style="text;html=1;strokeColor=none;fillColor=none;align=center;verticalAlign=middle;whiteSpace=wrap;rounded=0;" vertex="1" parent="1">
          <mxGeometry x="285" y="615" width="40" height="90" as="geometry" />
        </mxCell>
        <mxCell id="2jRVX2MjRYlF54W2R_-H-33" value="&lt;font style=&quot;font-size: 20px&quot;&gt;T&lt;/font&gt;" style="text;html=1;strokeColor=none;fillColor=none;align=center;verticalAlign=middle;whiteSpace=wrap;rounded=0;" vertex="1" parent="1">
          <mxGeometry x="520" y="630" width="40" height="40" as="geometry" />
        </mxCell>
        <mxCell id="2jRVX2MjRYlF54W2R_-H-34" value="&lt;font style=&quot;font-size: 20px&quot;&gt;F&lt;/font&gt;" style="text;html=1;strokeColor=none;fillColor=none;align=center;verticalAlign=middle;whiteSpace=wrap;rounded=0;" vertex="1" parent="1">
          <mxGeometry x="710" y="605" width="40" height="90" as="geometry" />
        </mxCell>
        <mxCell id="2jRVX2MjRYlF54W2R_-H-35" value="Finish" style="ellipse;whiteSpace=wrap;html=1;" vertex="1" parent="1">
          <mxGeometry x="365" y="990" width="120" height="80" as="geometry" />
        </mxCell>
      </root>
    </mxGraphModel>
  </diagram>
</mxfile>
